Coordinates
version=1
nRows=13
nColumns=63
inDegrees=yes

Units are S.I. units (second, meters, Newtons, ...)
If the header above contains a line with 'inDegrees', this indicates whether rotational values are in degrees (yes) or radians (no).

endheader
time	pelvis_tilt	pelvis_list	pelvis_rotation	pelvis_tx	pelvis_ty	pelvis_tz	hip_flexion_r	hip_adduction_r	hip_rotation_r	knee_angle_r	knee_angle_r_beta	ankle_angle_r	subtalar_angle_r	mtp_angle_r	hip_flexion_l	hip_adduction_l	hip_rotation_l	knee_angle_l	knee_angle_l_beta	ankle_angle_l	subtalar_angle_l	mtp_angle_l	L5_S1_Flex_Ext	L5_S1_Lat_Bending	L5_S1_axial_rotation	L4_L5_Flex_Ext	L4_L5_Lat_Bending	L4_L5_axial_rotation	L3_L4_Flex_Ext	L3_L4_Lat_Bending	L3_L4_axial_rotation	L2_L3_Flex_Ext	L2_L3_Lat_Bending	L2_L3_axial_rotation	L1_L2_Flex_Ext	L1_L2_Lat_Bending	L1_L2_axial_rotation	L1_T12_Flex_Ext	L1_T12_Lat_Bending	L1_T12_axial_rotation	Abs_r3	Abs_r2	Abs_r1	Abs_t1	Abs_t2	neck_flexion	neck_bending	neck_rotation	arm_flex_r	arm_add_r	arm_rot_r	elbow_flex_r	pro_sup_r	wrist_flex_r	wrist_dev_r	arm_flex_l	arm_add_l	arm_rot_l	elbow_flex_l	pro_sup_l	wrist_flex_l	wrist_dev_l
0.000000	-3.224923	-4.398951	86.461750	0.248055	0.905129	0.670595	10.712753	-6.066603	-13.752805	15.147691	0.264377	38.749212	15.857676	0.000000	8.185086	5.087846	9.887150	7.973107	0.139157	30.034243	-14.694642	0.000000	0.204371	-0.436226	1.607632	0.379537	-0.580181	1.708109	0.335761	-1.060641	1.708109	0.233576	-1.060641	1.406678	0.189779	-0.889553	1.306201	0.116778	-0.675715	1.205724	1.459802	-4.934679	8.941164	0.000000	0.000000	28.008511	3.175833	-0.185236	17.404818	-7.421329	17.816487	31.225544	80.736120	-8.600359	-3.789719	29.922560	-1.930296	56.488568	27.060942	59.331420	-12.636691	-4.857036
0.016667	-3.046733	-4.613129	86.751047	0.248238	0.904863	0.672054	11.110933	-5.859488	-13.730962	15.267075	0.266461	39.207608	15.398667	0.000000	8.797561	4.894758	9.312482	8.715694	0.152118	30.904026	-13.626566	0.000000	0.247025	-0.435920	1.562347	0.458750	-0.579774	1.659994	0.405837	-1.059896	1.659994	0.282325	-1.059896	1.367054	0.229387	-0.888928	1.269407	0.141150	-0.675240	1.171761	1.764474	-4.931217	8.689308	0.000000	0.000000	28.068118	2.626353	-0.914074	17.488437	-6.736343	18.593958	34.217998	74.377375	-7.851482	-3.266066	29.786827	-1.369938	53.102400	29.787741	62.187901	-11.421165	-1.826400
0.033333	-2.866387	-4.788271	86.941362	0.248520	0.904638	0.673446	11.462021	-5.646252	-13.708469	15.384649	0.268513	39.574607	15.089829	0.000000	9.322282	4.686768	8.764813	9.351113	0.163208	31.614347	-12.739240	0.000000	0.283324	-0.431185	1.536714	0.526160	-0.573477	1.632759	0.465472	-1.048384	1.632759	0.323811	-1.048384	1.344625	0.263094	-0.879273	1.248580	0.161891	-0.667906	1.152535	2.023752	-4.877655	8.546742	0.000000	0.000000	28.118213	2.162171	-1.495387	17.492144	-6.214908	19.314431	36.858312	68.958393	-7.176937	-2.479637	29.684217	-0.932722	50.427319	32.107731	64.295223	-10.246372	0.858455
0.050000	-2.686320	-4.927395	87.041817	0.248891	0.904452	0.674770	11.768879	-5.429633	-13.682294	15.500179	0.270529	39.856700	14.912097	0.000000	9.765096	4.467694	8.242324	9.886742	0.172556	32.179324	-12.015507	0.000000	0.313643	-0.422708	1.528763	0.582467	-0.562202	1.624311	0.515284	-1.027773	1.624311	0.358463	-1.027773	1.337668	0.291249	-0.861987	1.242120	0.179216	-0.654775	1.146573	2.240322	-4.781760	8.502524	0.000000	0.000000	28.159396	1.779060	-1.944583	17.424908	-5.840938	19.982447	39.167171	64.414780	-6.566319	-1.461000	29.608707	-0.607820	48.399351	34.051888	65.727065	-9.122919	3.215245
0.066667	-2.508970	-5.033517	87.061532	0.249338	0.904301	0.676020	12.034367	-5.212374	-13.649405	15.613434	0.272506	40.060375	14.846410	0.000000	10.131848	4.241353	7.743198	10.329958	0.180292	32.613076	-11.438209	0.000000	0.338360	-0.411175	1.536528	0.628368	-0.546863	1.632561	0.555891	-0.999731	1.632561	0.386711	-0.999731	1.344462	0.314201	-0.838468	1.248429	0.193339	-0.636910	1.152396	2.416870	-4.651296	8.545710	0.000000	0.000000	28.192268	1.472795	-2.277068	17.295699	-5.598347	20.602545	41.165257	60.682144	-6.009227	-0.240724	29.554272	-0.384403	46.954519	35.651191	66.557105	-8.061410	5.261688
0.083333	-2.336773	-5.109657	87.009628	0.249853	0.904184	0.677196	12.261344	-4.997214	-13.606768	15.724181	0.274439	40.192121	14.873703	0.000000	10.428386	4.011561	7.265615	10.688138	0.186543	32.929720	-10.990187	0.000000	0.357849	-0.397273	1.558041	0.664562	-0.528373	1.655419	0.587910	-0.965929	1.655419	0.408986	-0.965929	1.363286	0.332299	-0.810118	1.265909	0.204475	-0.615375	1.168531	2.556080	-4.494028	8.665358	0.000000	0.000000	28.217429	1.239148	-2.508248	17.113488	-5.471051	21.179266	42.873253	57.696094	-5.495257	1.150624	29.514890	-0.251645	46.028851	36.936616	66.859020	-7.072451	7.015500
0.100000	-2.172166	-5.158832	86.895227	0.250422	0.904098	0.678293	12.452672	-4.786894	-13.551353	15.832187	0.276324	40.258429	14.974915	0.000000	10.660556	3.782135	6.807757	10.968661	0.191439	33.143374	-10.654285	0.000000	0.372487	-0.381687	1.591334	0.691746	-0.507644	1.690793	0.611959	-0.928034	1.690793	0.425716	-0.928034	1.392417	0.345892	-0.778336	1.292959	0.212839	-0.591233	1.193501	2.660640	-4.317720	8.850524	0.000000	0.000000	28.235480	1.073892	-2.653528	16.887245	-5.442962	21.717148	44.311844	55.392238	-5.014007	2.682476	29.484536	-0.198718	45.558372	37.939140	66.706489	-6.166649	8.494398
0.116667	-2.017585	-5.184059	86.727449	0.251034	0.904039	0.679310	12.611211	-4.584154	-13.480125	15.937220	0.278157	40.265786	15.130981	0.000000	10.834205	3.556893	6.367805	11.178902	0.195109	33.268157	-10.413344	0.000000	0.382650	-0.365105	1.634440	0.710620	-0.485589	1.736592	0.628656	-0.887716	1.736592	0.437331	-0.887716	1.430135	0.355329	-0.744522	1.327982	0.218646	-0.565547	1.225830	2.733234	-4.130138	9.090265	0.000000	0.000000	28.247023	0.972802	-2.728315	16.625941	-5.497995	22.220731	45.501710	53.706183	-4.555075	4.324262	29.457187	-0.214795	45.479106	38.689741	66.173189	-5.354608	9.716099
0.133333	-1.875468	-5.188357	86.515414	0.251680	0.904006	0.680242	12.739821	-4.391737	-13.390053	16.039046	0.279934	40.220683	15.322839	0.000000	10.955180	3.339651	5.943942	11.326241	0.197680	33.318185	-10.250206	0.000000	0.388714	-0.348212	1.685391	0.721882	-0.463122	1.790728	0.638619	-0.846643	1.790728	0.444262	-0.846643	1.474717	0.360960	-0.710074	1.369380	0.222111	-0.539381	1.264043	2.776548	-3.939046	9.373637	0.000000	0.000000	28.252657	0.931649	-2.748014	16.338545	-5.620065	22.694556	46.463537	52.573537	-4.108057	6.045415	29.426818	-0.289047	45.727079	39.219394	65.332799	-4.646934	10.698321
0.150000	-1.748250	-5.174743	86.268245	0.252346	0.903996	0.681087	12.841363	-4.212381	-13.278104	16.137434	0.281651	40.129608	15.531425	0.000000	11.029328	3.134225	5.534348	11.418054	0.199283	33.307578	-10.147714	0.000000	0.391055	-0.331696	1.742219	0.726229	-0.441155	1.851107	0.642465	-0.806485	1.851107	0.446937	-0.806485	1.524441	0.363134	-0.676394	1.415553	0.223449	-0.513797	1.306664	2.793268	-3.752209	9.689698	0.000000	0.000000	28.252983	0.946208	-2.728033	16.034029	-5.793087	23.143162	47.218008	51.929909	-3.662551	7.815366	29.387406	-0.410648	46.238316	39.559078	64.258997	-4.054233	11.458779
0.166667	-1.638370	-5.146235	85.995061	0.253023	0.904006	0.681842	12.918696	-4.048828	-13.141245	16.232151	0.283304	39.999050	15.737678	0.000000	11.062494	2.944434	5.137205	11.461719	0.200045	33.250453	-10.088709	0.000000	0.390049	-0.316242	1.802957	0.724360	-0.420602	1.915641	0.640811	-0.768911	1.915641	0.445787	-0.768911	1.577587	0.362199	-0.644881	1.464902	0.222874	-0.489859	1.352218	2.786080	-3.577392	10.027504	0.000000	0.000000	28.248602	1.012251	-2.683776	15.721362	-6.000973	23.571088	47.785804	51.710905	-3.208155	9.603547	29.332927	-0.568770	46.948843	39.739770	63.025460	-3.587111	12.015191
0.183333	-1.539389	-5.095719	85.703459	0.253686	0.904064	0.682461	12.954564	-3.884155	-12.896490	16.305987	0.284593	39.833016	15.759533	0.000000	11.051218	2.755876	4.611443	11.482471	0.200407	33.235371	-9.875106	0.000000	0.386644	-0.301216	1.869690	0.718037	-0.400618	1.986545	0.635218	-0.732377	1.986545	0.441896	-0.732377	1.635979	0.359038	-0.614240	1.519123	0.220929	-0.466584	1.402267	2.761762	-3.407418	10.398654	0.000000	0.000000	28.242469	1.045011	-2.671093	15.439925	-6.245552	23.952956	48.263036	51.471536	-2.680843	11.338455	29.158896	-0.729524	47.575514	39.860145	61.556142	-3.059309	12.417827
0.200000	-1.490033	-5.046094	85.393951	0.254344	0.904110	0.682975	12.996271	-3.779162	-12.670006	16.402802	0.286283	39.641212	15.836277	0.000000	11.010528	2.626771	4.192541	11.441194	0.199687	33.180764	-9.777667	0.000000	0.379764	-0.292428	1.936906	0.705259	-0.388929	2.057962	0.623914	-0.711009	2.057962	0.434032	-0.711009	1.694792	0.352648	-0.596319	1.573736	0.216997	-0.452971	1.452679	2.712613	-3.308003	10.772488	0.000000	0.000000	28.229480	1.164416	-2.691943	15.169667	-6.453892	24.378685	48.530560	51.736085	-2.106131	13.010096	28.984834	-0.910428	48.299372	39.890986	60.461396	-2.892424	12.630394
